Coordinates
version=1
nRows=14
nColumns=24
inDegrees=yes

Units are S.I. units (second, meters, Newtons, ...)
Angles are in degrees.

endheader
time	pelvis_tilt	pelvis_list	pelvis_rotation	pelvis_tx	pelvis_ty	pelvis_tz	hip_flexion_r	hip_adduction_r	hip_rotation_r	knee_angle_r	ankle_angle_r	subtalar_angle_r	mtp_angle_r	hip_flexion_l	hip_adduction_l	hip_rotation_l	knee_angle_l	ankle_angle_l	subtalar_angle_l	mtp_angle_l	lumbar_extension	lumbar_bending	lumbar_rotation
     22.88000000	     -1.66400227	     -3.04132021	   -270.04400844	     -0.01397352	      0.12242584	     -1.86529923	     26.45140332	    -10.98962377	    -13.53781265	    -60.75906645	     -4.60019176	     -1.65383397	     12.39712156	      5.30575860	      3.18849866	     -6.74156821	    -14.55618681	      7.32426908	     -3.10820686	      2.59870844	     -8.58602117	     -2.49364720	     -5.15147515
     22.88500000	     -1.56117453	     -3.10103021	   -269.80647155	     -0.01444417	      0.12241956	     -1.86439735	     27.06295059	    -10.85155032	    -13.68955047	    -59.88080550	     -3.98259853	     -1.17753577	     12.14146097	      4.88461819	      3.14522816	     -6.55974564	    -14.26956098	      7.52677403	     -3.01578845	      2.62758560	     -8.62432760	     -2.28996188	     -5.53008688
     22.89000000	     -1.53232604	     -3.04205493	   -269.79322911	     -0.01453413	      0.12259592	     -1.86356130	     27.57715710	    -10.64096670	    -13.59007957	    -58.93073791	     -3.24146791	     -1.41033974	     10.05054593	      4.22623493	      3.14383198	     -6.55850061	    -13.84040464	      7.60378184	     -2.96986300	      2.70112805	     -8.76983392	     -2.20265999	     -5.68676531
     22.89500000	     -1.47358640	     -3.01327221	   -269.60124353	     -0.01488221	      0.12265566	     -1.86309129	     28.01514623	    -10.56856935	    -13.78891757	    -57.91115150	     -2.88758421	     -1.23920691	     10.08641466	      3.60893415	      3.12385704	     -6.41470830	    -13.44983309	      7.71221893	     -2.85870733	      2.71459699	     -8.84381953	     -2.05618562	     -6.02748807
     22.90000000	     -1.41678213	     -3.03435492	   -269.48270602	     -0.01514168	      0.12258334	     -1.86212898	     28.54673370	    -10.39971152	    -13.80588658	    -56.86653967	     -2.14941854	     -0.91616480	      9.04475639	      3.13464203	      3.08661241	     -6.39173445	    -13.16547988	      7.90213171	     -2.74950136	      2.52538347	     -8.92269989	     -1.92328367	     -6.24851691
     22.90500000	     -1.35957671	     -3.00430112	   -269.34450378	     -0.01539049	      0.12254303	     -1.86120179	     28.98261109	    -10.22712414	    -13.83152397	    -55.74610954	     -1.84588716	     -0.97090990	      9.03075039	      2.57347634	      3.04829788	     -6.31228199	    -12.81122199	      7.97010957	     -2.63119269	      2.55742000	     -9.05804051	     -1.78171641	     -6.54783315
     22.91000000	     -1.27269264	     -2.98685160	   -269.22760500	     -0.01558140	      0.12244836	     -1.86030118	     29.38769978	    -10.01235114	    -13.83636135	    -54.54747072	     -1.46119429	     -0.88470301	      8.83801612	      2.05925695	      2.94000977	     -6.46864327	    -12.49106484	      8.02708532	     -2.14835963	      2.69121239	     -9.17095578	     -1.61918232	     -6.77686572
     22.91500000	     -1.20125628	     -3.01185748	   -269.08874445	     -0.01588232	      0.12219183	     -1.85933623	     29.84975047	     -9.84885683	    -13.92574398	    -53.33598089	     -1.19285424	     -1.06498285	      8.57086012	      1.57476189	      2.96866095	     -5.77268630	    -12.35785059	      8.41182293	     -2.76844911	      2.67632493	     -9.24904051	     -1.45694659	     -7.04167926
     22.92000000	     -1.12707827	     -3.01674256	   -268.98307657	     -0.01597527	      0.12195937	     -1.85832343	     30.24217434	     -9.63566320	    -13.90930196	    -52.04901189	     -0.79235261	     -1.14240710	      8.14906042	      1.11121204	      2.85974251	     -6.05400608	    -12.06321497	      8.57499794	     -2.27630087	      2.65377702	     -9.35494398	     -1.31127613	     -7.25982740
     22.92500000	     -1.04920668	     -3.03596128	   -268.87223852	     -0.01611477	      0.12164135	     -1.85734644	     30.63034350	     -9.41854787	    -13.92503900	    -50.71386205	     -0.42820662	     -1.29618335	      8.11288800	      0.66381392	      2.79291921	     -5.93444320	    -11.85235942	      8.74685431	     -2.28923117	      2.68651754	     -9.44618102	     -1.16265173	     -7.46955699
     22.93000000	     -0.98844936	     -3.08342754	   -268.76772187	     -0.01619531	      0.12126155	     -1.85637460	     31.02674448	     -9.20002205	    -13.88064268	    -49.34926552	      0.12103356	     -1.58752684	      6.14274296	      0.25994596	      2.72799253	     -5.87150452	    -11.66158211	      9.04627124	     -2.20331579	      2.57586881	     -9.50585003	     -1.03110585	     -7.67352657
     22.93500000	     -0.92847015	     -3.11425111	   -268.65529876	     -0.01624703	      0.12081596	     -1.85541646	     31.36796124	     -8.99175203	    -13.84467828	    -47.94055526	      0.34542152	     -1.86185466	      6.20148179	     -0.15142672	      2.66482180	     -5.77987603	    -11.48928416	      9.22356118	     -2.19642150	      2.61249693	     -9.58538010	     -0.90457916	     -7.89442197
     22.94000000	     -0.86824451	     -3.16238949	   -268.54142087	     -0.01621015	      0.12032719	     -1.85448949	     31.70295846	     -8.77721020	    -13.83087084	    -46.48477470	      0.62990065	     -2.07444115	      6.21887371	     -0.54134475	      2.59646105	     -5.66567665	    -11.32729283	      9.38029063	     -2.07441224	      2.63863818	     -9.64453577	     -0.79380193	     -8.10976197
     22.94500000	     -0.82264907	     -3.19177654	   -268.44207689	     -0.01612729	      0.11982356	     -1.85354024	     31.99374270	     -8.56731049	    -13.77636053	    -44.99264531	      0.84375601	     -2.29193179	      6.20276265	     -0.95891788	      2.53796674	     -5.62623948	    -11.14930224	      9.60742209	     -2.02096808	      2.68493855	     -9.72595240	     -0.69206534	     -8.31236911
